PathFileType	4	(x/y/z)	S05_P20_T22
DataRate	CameraRate	NumFrames	NumMarkers	Units	OrigDataRate	OrigDataStartFrame	OrigNumFrames
240	240	10	50	mm	240	98	391
Frame#	Time	Sternum			R.Acromium			L.Acromium			Top.Head			R.ASIS			L.ASIS			R.PSIS			L.PSIS			R.Great.Tro			L.Great.Tro			R.Iliac.Crest			L.Iliac.Crest			V.Sacral			R.Thigh.Upper.Post			R.Thigh.Lower.Ant			R.Thigh.Lower.Post			R.Thigh.Upper.Ant			R.Knee.Lat			R.Knee.Med			R.Shank.Upper.Post			R.Shank.Lower.Ant			R.Shank.Lower.Post			R.Shank.Upper.Ant			R.Ankle.Lat			R.Ankle.Med			R.Heel.Upper			R.Heel.Med			R.Heel.Lat			R.Toe.Lat			R.Toe.Med			R.Toe.Tip			L.Thigh.Upper.Post			L.Thigh.Lower.Ant			L.Thigh.Lower.Post			L.Thigh.Upper.Ant			L.Knee.Lat			L.Shank.Upper.Post			L.Shank.Lower.Ant			L.Shank.Lower.Post			L.Shank.Upper.Ant			L.Ankle.Lat			L.Ankle.Med			L.Heel.Upper			L.Heel.Med			L.Heel.Lat			L.Toe.Lat			L.Toe.Med			L.Toe.Tip			Cervical.Spine			Back			
		X1	Y1	Z1	X2	Y2	Z2	X3	Y3	Z3	X4	Y4	Z4	X5	Y5	Z5	X6	Y6	Z6	X7	Y7	Z7	X8	Y8	Z8	X9	Y9	Z9	X10	Y10	Z10	X11	Y11	Z11	X12	Y12	Z12	X13	Y13	Z13	X14	Y14	Z14	X15	Y15	Z15	X16	Y16	Z16	X17	Y17	Z17	X18	Y18	Z18	X19	Y19	Z19	X20	Y20	Z20	X21	Y21	Z21	X22	Y22	Z22	X23	Y23	Z23	X24	Y24	Z24	X25	Y25	Z25	X26	Y26	Z26	X27	Y27	Z27	X28	Y28	Z28	X29	Y29	Z29	X30	Y30	Z30	X31	Y31	Z31	X32	Y32	Z32	X33	Y33	Z33	X34	Y34	Z34	X35	Y35	Z35	X36	Y36	Z36	X37	Y37	Z37	X38	Y38	Z38	X39	Y39	Z39	X40	Y40	Z40	X41	Y41	Z41	X42	Y42	Z42	X43	Y43	Z43	X44	Y44	Z44	X45	Y45	Z45	X46	Y46	Z46	X47	Y47	Z47	X48	Y48	Z48	X49	Y49	Z49	X50	Y50	Z50	

98	0.40417	NaN	NaN	NaN	-938.61	1538.6	454.41	-951.73	1549.8	130.95	-944.9	1837	290.8	-927.63	1022.9	429.17	NaN	NaN	NaN	-1131.9	1035.7	348.01	-1131.3	1042	256.8	-997.6	943.05	499.16	-1027.5	945.16	111.32	-1021.8	1105.8	471.44	-1018.5	1100.7	136.78	-1142.4	1004.1	315.09	-849.09	754.37	494.92	-776.55	709.93	436.45	-823.34	669.42	476.02	-807.32	792.52	454.43	-797.83	576.97	456.89	-789.51	565.82	325.11	-846.92	331.43	437.93	-778.23	273.29	440.76	-837.22	256.92	420.46	-787.14	349.27	456.23	-779.08	166.68	421.26	-774.95	197.97	336.95	-834.29	104.12	353.39	NaN	NaN	NaN	-824.62	75.831	388.9	-669.55	93.938	455.87	-576.6	143.89	393.57	NaN	NaN	NaN	-1051.6	707.63	127.68	-977.85	626.92	150.24	-1049.6	613.88	147.73	-972.29	715.4	127.91	-1051.3	520.12	158.3	-1143.7	329.02	171.77	NaN	NaN	NaN	-1154.9	260.62	194.29	-1077.1	331.3	157.04	-1138.9	117.5	205.8	-1100.4	132.79	289.82	-1198.9	72.135	263.88	-1186.2	45.718	294.15	-1201.3	46.904	233.81	-1024.2	38.516	161.92	NaN	NaN	NaN	-929.47	52.972	218.8	-993.34	1577	298.52	-1116	1305.1	299.03
99	0.40833	NaN	NaN	NaN	-933.23	1537.8	454.54	-946.39	1549.2	131.11	-939.64	1836.2	291.22	-922	1022.1	429.17	NaN	NaN	NaN	-1126.4	1035.1	348.37	-1126	1041.6	257.18	-991.96	942.02	499.18	-1022.6	944.79	111.44	-1015.9	1104.9	471.57	-1013.3	1100.1	136.96	-1137	1003.5	315.45	-844.69	752.31	494.62	-772.7	707.4	435.76	-819.47	667.17	475.64	-802.89	790.17	453.89	-793.76	575.16	456.18	-785.87	563.59	324.18	-837.16	328.59	438.58	-766.96	272.2	441.39	-825.6	254.23	421.33	-777.76	348.03	456.59	-764.96	165.27	422.34	-761.94	196.43	337.93	-818.75	100.92	354.87	NaN	NaN	NaN	-808.24	73.098	390.56	-653.71	95.624	457.01	-564.13	146.62	393.12	NaN	NaN	NaN	-1048.5	707.57	127.77	-975.22	626.41	150.34	-1047	613.83	147.86	-969.16	714.83	127.9	-1049.6	520.03	158.47	-1142.8	329.27	172.03	NaN	NaN	NaN	-1154.2	260.89	194.55	-1076.2	331.29	157.16	-1138.7	117.62	206.02	-1100.1	132.77	290	-1198.8	72.204	264.17	-1186.1	45.744	294.39	-1201.2	47.003	234.06	-1024.2	38.519	161.94	NaN	NaN	NaN	-929.41	52.817	218.78	-988	1576.3	298.66	-1110.5	1304.3	299.17
100	0.4125	NaN	NaN	NaN	-927.86	1536.9	454.69	-941.05	1548.5	131.29	-934.39	1835.3	291.65	-916.34	1021.2	429.16	NaN	NaN	NaN	-1120.8	1034.4	348.75	-1120.7	1041.1	257.58	-986.3	940.91	499.19	-1017.8	944.39	111.55	-1010.1	1103.9	471.7	-1008.1	1099.5	137.14	-1131.5	1002.9	315.83	-840.27	750.2	494.34	-768.87	704.8	435.07	-815.6	664.86	475.3	-798.49	787.74	453.33	-789.71	573.29	455.51	-782.26	561.27	323.27	-827.57	325.86	439.23	-755.95	271.22	442.03	-814.22	251.7	422.2	-768.58	346.86	456.95	-751.17	164.01	423.4	-749.21	195.02	338.89	-803.54	97.971	356.34	NaN	NaN	NaN	-792.23	70.611	392.19	-638.31	97.424	458.13	-551.9	149.14	392.4	NaN	NaN	NaN	-1045.3	707.47	127.86	-972.53	625.88	150.43	-1044.4	613.76	147.98	-965.96	714.23	127.88	-1047.7	519.9	158.62	-1141.8	329.52	172.28	NaN	NaN	NaN	-1153.4	261.15	194.79	-1075.2	331.25	157.28	-1138.6	117.73	206.24	-1099.7	132.75	290.17	-1198.7	72.272	264.46	-1185.9	45.769	294.63	-1201.1	47.1	234.32	-1024.2	38.521	161.96	NaN	NaN	NaN	-929.34	52.658	218.76	-982.67	1575.5	298.83	-1105	1303.4	299.31
101	0.41667	NaN	NaN	NaN	-922.49	1536	454.86	-935.71	1547.7	131.49	-929.14	1834.4	292.09	-910.67	1020.3	429.15	NaN	NaN	NaN	-1115.1	1033.7	349.14	-1115.2	1040.5	257.99	-980.62	939.75	499.2	-1012.9	943.94	111.66	-1004.3	1102.9	471.83	-1003	1098.8	137.32	-1126	1002.2	316.2	-835.83	748.06	494.07	-765.05	702.15	434.37	-811.71	662.52	474.99	-794.08	785.25	452.77	-785.67	571.38	454.88	-778.68	558.89	322.4	-818.17	323.25	439.89	-745.2	270.31	442.66	-803.08	249.3	423.06	-759.6	345.73	457.32	-737.74	162.91	424.44	-736.79	193.72	339.82	-788.71	95.262	357.78	NaN	NaN	NaN	-776.63	68.354	393.78	-623.37	99.301	459.21	-540.04	151.4	391.39	NaN	NaN	NaN	-1042	707.34	127.93	-969.75	625.32	150.51	-1041.7	613.65	148.09	-962.7	713.6	127.84	-1045.8	519.76	158.77	-1140.8	329.76	172.52	NaN	NaN	NaN	-1152.5	261.39	195.02	-1074.2	331.19	157.39	-1138.4	117.84	206.46	-1099.4	132.72	290.36	-1198.6	72.343	264.75	-1185.8	45.795	294.87	-1201	47.197	234.59	-1024.2	38.524	161.99	NaN	NaN	NaN	-929.27	52.495	218.74	-977.34	1574.6	299.02	-1099.5	1302.5	299.45
102	0.42083	NaN	NaN	NaN	-917.11	1535	455.05	-930.36	1546.9	131.71	-923.88	1833.4	292.56	-904.98	1019.3	429.14	NaN	NaN	NaN	-1109.4	1032.9	349.54	-1109.7	1039.9	258.42	-974.92	938.53	499.21	-1008	943.45	111.76	-998.41	1101.8	471.97	-997.83	1098.1	137.49	-1120.6	1001.4	316.59	-831.35	745.9	493.82	-761.21	699.46	433.68	-807.78	660.15	474.71	-789.66	782.72	452.21	-781.63	569.43	454.31	-775.11	556.46	321.55	-808.96	320.76	440.53	-734.74	269.48	443.28	-792.22	247.05	423.9	-750.84	344.65	457.69	-724.69	161.94	425.46	-724.69	192.54	340.73	-774.3	92.779	359.19	NaN	NaN	NaN	-761.47	66.313	395.32	-608.89	101.22	460.24	-528.64	153.34	390.07	NaN	NaN	NaN	-1038.7	707.17	128	-966.9	624.73	150.56	-1038.9	613.52	148.18	-959.37	712.94	127.79	-1043.7	519.58	158.9	-1139.6	330	172.75	NaN	NaN	NaN	-1151.5	261.62	195.22	-1073.1	331.1	157.49	-1138.1	117.96	206.68	-1099	132.69	290.54	-1198.4	72.416	265.04	-1185.6	45.824	295.12	-1200.9	47.294	234.86	-1024.2	38.526	162.02	NaN	NaN	NaN	-929.2	52.328	218.73	-972.02	1573.7	299.23	-1094	1301.6	299.61
103	0.425	NaN	NaN	NaN	-911.74	1534	455.27	-925.01	1546.1	131.96	-918.62	1832.4	293.03	-899.28	1018.2	429.14	NaN	NaN	NaN	-1103.6	1032	349.96	-1104.2	1039.1	258.85	-969.19	937.27	499.22	-1003.1	942.92	111.86	-992.55	1100.6	472.1	-992.69	1097.3	137.67	-1115.1	1000.5	316.98	-826.83	743.73	493.59	-757.35	696.76	433	-803.82	657.77	474.47	-785.23	780.18	451.65	-777.58	567.46	453.78	-771.54	554.01	320.75	-799.97	318.37	441.16	-724.58	268.71	443.88	-781.64	244.92	424.71	-742.3	343.61	458.06	-712.05	161.08	426.43	-712.93	191.45	341.59	-760.34	90.508	360.55	NaN	NaN	NaN	-746.78	64.47	396.8	-594.9	103.14	461.22	-517.81	154.93	388.44	NaN	NaN	NaN	-1035.3	706.97	128.06	-963.96	624.12	150.61	-1036	613.34	148.26	-955.97	712.26	127.73	-1041.6	519.38	159.02	-1138.4	330.23	172.97	NaN	NaN	NaN	-1150.5	261.84	195.41	-1071.9	331	157.58	-1137.9	118.08	206.9	-1098.7	132.66	290.72	-1198.3	72.494	265.33	-1185.4	45.859	295.37	-1200.9	47.395	235.13	-1024.2	38.527	162.05	NaN	NaN	NaN	-929.14	52.156	218.71	-966.7	1572.7	299.47	-1088.6	1300.6	299.76
104	0.42917	NaN	NaN	NaN	-906.36	1532.9	455.51	-919.65	1545.3	132.23	-913.35	1831.4	293.53	-893.56	1017.2	429.13	NaN	NaN	NaN	-1097.9	1031	350.38	-1098.6	1038.4	259.29	-963.44	935.96	499.23	-998.21	942.35	111.95	-986.68	1099.4	472.24	-987.55	1096.5	137.84	-1109.5	999.59	317.38	-822.26	741.57	493.37	-753.44	694.06	432.33	-799.8	655.4	474.25	-780.75	777.64	451.1	-773.52	565.48	453.3	-767.95	551.55	319.99	-791.2	316.1	441.77	-714.73	267.98	444.47	-771.37	242.92	425.48	-733.99	342.6	458.42	-699.83	160.33	427.36	-701.52	190.45	342.41	-746.86	88.433	361.86	NaN	NaN	NaN	-732.6	62.803	398.2	-581.41	105.03	462.13	-507.58	156.14	386.48	NaN	NaN	NaN	-1031.8	706.73	128.11	-960.93	623.49	150.64	-1033	613.14	148.33	-952.5	711.55	127.66	-1039.3	519.15	159.13	-1137.1	330.45	173.17	NaN	NaN	NaN	-1149.4	262.06	195.57	-1070.6	330.87	157.66	-1137.7	118.21	207.11	-1098.3	132.63	290.91	-1198.2	72.58	265.62	-1185.3	45.902	295.61	-1200.8	47.501	235.39	-1024.2	38.528	162.08	NaN	NaN	NaN	-929.07	51.977	218.7	-961.39	1571.7	299.74	-1083.2	1299.5	299.92
105	0.43333	NaN	NaN	NaN	-900.99	1531.8	455.78	-914.29	1544.4	132.53	-908.08	1830.3	294.05	-887.84	1016	429.13	NaN	NaN	NaN	-1092.1	1030	350.81	-1093	1037.5	259.75	-957.66	934.61	499.23	-993.27	941.73	112.05	-980.81	1098.1	472.38	-982.41	1095.7	138.02	-1104	998.59	317.78	-817.63	739.43	493.16	-749.48	691.39	431.68	-795.72	653.05	474.05	-776.23	775.11	450.57	-769.42	563.5	452.88	-764.33	549.11	319.28	-782.66	313.92	442.35	-705.21	267.29	445.03	-761.43	241.02	426.21	-725.91	341.62	458.78	-688.06	159.65	428.23	-690.48	189.51	343.17	-733.9	86.537	363.1	NaN	NaN	NaN	-718.96	61.294	399.52	-568.42	106.84	462.97	-498.01	156.93	384.22	NaN	NaN	NaN	-1028.3	706.46	128.16	-957.82	622.82	150.65	-1029.9	612.89	148.38	-948.95	710.81	127.58	-1037	518.89	159.22	-1135.8	330.67	173.34	NaN	NaN	NaN	-1148.2	262.28	195.72	-1069.3	330.72	157.73	-1137.4	118.35	207.31	-1097.9	132.61	291.09	-1198.1	72.678	265.89	-1185.1	45.958	295.85	-1200.7	47.616	235.66	-1024.3	38.527	162.12	NaN	NaN	NaN	-929	51.792	218.69	-956.09	1570.7	300.03	-1077.8	1298.4	300.09
106	0.4375	NaN	NaN	NaN	-895.62	1530.6	456.07	-908.94	1543.5	132.85	-902.79	1829.1	294.59	-882.1	1014.9	429.13	NaN	NaN	NaN	-1086.4	1028.9	351.25	-1087.4	1036.6	260.2	-951.86	933.23	499.25	-988.31	941.09	112.15	-974.95	1096.8	472.53	-977.26	1094.7	138.19	-1098.5	997.52	318.19	-812.94	737.33	492.97	-745.45	688.76	431.07	-791.57	650.74	473.88	-771.65	772.61	450.06	-765.28	561.53	452.5	-760.65	546.7	318.62	-774.36	311.85	442.89	-696.01	266.62	445.56	-751.82	239.24	426.9	-718.06	340.65	459.12	-676.76	159.04	429.05	-679.83	188.61	343.88	-721.47	84.802	364.26	NaN	NaN	NaN	-705.88	59.92	400.75	-555.95	108.54	463.74	-489.11	157.32	381.69	NaN	NaN	NaN	-1024.6	706.15	128.19	-954.62	622.14	150.65	-1026.8	612.62	148.41	-945.32	710.05	127.49	-1034.5	518.6	159.3	-1134.3	330.89	173.5	NaN	NaN	NaN	-1146.9	262.5	195.84	-1067.9	330.55	157.78	-1137.1	118.51	207.5	-1097.5	132.58	291.26	-1197.9	72.791	266.16	-1185	46.03	296.08	-1200.6	47.744	235.91	-1024.3	38.525	162.15	NaN	NaN	NaN	-928.94	51.601	218.69	-950.79	1569.6	300.35	-1072.5	1297.3	300.27
107	0.44167	NaN	NaN	NaN	-890.25	1529.3	456.38	-903.58	1542.5	133.19	-897.5	1828	295.15	-876.36	1013.7	429.14	NaN	NaN	NaN	-1080.6	1027.8	351.7	-1081.8	1035.6	260.67	-946.04	931.83	499.26	-983.32	940.4	112.25	-969.08	1095.5	472.68	-972.12	1093.8	138.37	-1092.9	996.4	318.6	-808.18	735.27	492.78	-741.33	686.18	430.48	-787.35	648.48	473.72	-767	770.16	449.58	-761.1	559.59	452.17	-756.92	544.34	318.02	-766.31	309.87	443.39	-687.15	265.96	446.06	-742.55	237.54	427.53	-710.46	339.7	459.44	-665.94	158.46	429.81	-669.58	187.75	344.53	-709.62	83.209	365.35	NaN	NaN	NaN	-693.39	58.662	401.88	-544.02	110.09	464.41	-480.84	157.3	378.95	NaN	NaN	NaN	-1020.9	705.81	128.22	-951.32	621.42	150.63	-1023.5	612.31	148.43	-941.61	709.27	127.39	-1031.9	518.29	159.37	-1132.8	331.1	173.64	NaN	NaN	NaN	-1145.7	262.74	195.95	-1066.4	330.36	157.82	-1136.8	118.68	207.67	-1097.1	132.57	291.43	-1197.8	72.924	266.41	-1184.8	46.123	296.31	-1200.6	47.89	236.16	-1024.3	38.522	162.19	NaN	NaN	NaN	-928.87	51.402	218.68	-945.5	1568.5	300.69	-1067.1	1296.2	300.46
